<svg width="2118" height="471" viewBox="0 0 2118 471" fill="none" xmlns="http://www.w3.org/2000/svg">
<path d="M8.39409 71V59.4943C8.39409 56.2273 9.03329 52.8892 10.3117 49.4801C11.5901 46.071 13.2769 42.8572 15.3721 39.8388C17.4672 36.8203 19.74 34.299 22.1903 32.2749L32.2045 38.1875C30.2158 41.3125 28.5823 44.5795 27.3039 47.9886C26.061 51.3977 25.4395 55.1974 25.4395 59.3878V71H8.39409ZM35.2939 71V59.4943C35.2939 56.2273 35.9331 52.8892 37.2116 49.4801C38.49 46.071 40.1768 42.8572 42.2719 39.8388C44.3671 36.8203 46.6398 34.299 49.0901 32.2749L59.1043 38.1875C57.1157 41.3125 55.4822 44.5795 54.2037 47.9886C52.9608 51.3977 52.3394 55.1974 52.3394 59.3878V71H35.2939ZM77.2018 146H52.4859L90.1457 36.9091H119.869L157.475 146H132.759L105.433 61.8381H104.581L77.2018 146ZM75.657 103.12H134.038V121.124H75.657V103.12ZM205.322 146V36.9091H277.552V55.9254H228.387V81.9197H272.758V100.936H228.387V146H205.322ZM314.946 147.545C309.726 147.545 305.074 146.639 300.99 144.828C296.906 142.982 293.675 140.265 291.295 136.678C288.952 133.056 287.78 128.546 287.78 123.148C287.78 118.603 288.614 114.786 290.283 111.696C291.952 108.607 294.225 106.121 297.101 104.239C299.978 102.357 303.245 100.936 306.903 99.9773C310.596 99.0185 314.467 98.3438 318.515 97.9531C323.273 97.456 327.109 96.9943 330.021 96.5682C332.932 96.1065 335.045 95.4318 336.359 94.544C337.673 93.6562 338.33 92.3423 338.33 90.6023V90.2827C338.33 86.9091 337.265 84.299 335.134 82.4524C333.039 80.6058 330.056 79.6825 326.185 79.6825C322.101 79.6825 318.852 80.5881 316.437 82.3991C314.023 84.1747 312.425 86.4119 311.643 89.1108L290.656 87.4062C291.722 82.4347 293.817 78.1378 296.942 74.5156C300.067 70.858 304.097 68.0526 309.033 66.0994C314.005 64.1108 319.758 63.1165 326.292 63.1165C330.837 63.1165 335.187 63.6491 339.342 64.7145C343.533 65.7798 347.244 67.4311 350.475 69.6683C353.742 71.9055 356.317 74.782 358.199 78.2976C360.081 81.7777 361.022 85.9503 361.022 90.8153V146H339.502V134.654H338.863C337.549 137.211 335.791 139.466 333.589 141.419C331.388 143.337 328.742 144.846 325.653 145.947C322.563 147.012 318.994 147.545 314.946 147.545ZM321.445 131.884C324.783 131.884 327.73 131.227 330.287 129.913C332.844 128.564 334.85 126.753 336.306 124.48C337.762 122.207 338.49 119.633 338.49 116.756V108.074C337.78 108.536 336.803 108.962 335.56 109.352C334.353 109.707 332.986 110.045 331.459 110.364C329.932 110.648 328.405 110.915 326.878 111.163C325.351 111.376 323.966 111.572 322.723 111.749C320.06 112.14 317.734 112.761 315.745 113.614C313.756 114.466 312.212 115.62 311.111 117.076C310.01 118.496 309.459 120.272 309.459 122.403C309.459 125.492 310.578 127.854 312.815 129.487C315.088 131.085 317.964 131.884 321.445 131.884ZM415.594 147.598C407.213 147.598 400.005 145.822 393.968 142.271C387.966 138.685 383.35 133.713 380.118 127.357C376.922 121 375.324 113.685 375.324 105.411C375.324 97.0298 376.94 89.679 380.171 83.358C383.438 77.0014 388.073 72.0476 394.074 68.4964C400.076 64.9098 407.213 63.1165 415.487 63.1165C422.625 63.1165 428.875 64.4126 434.237 67.005C439.6 69.5973 443.843 73.2372 446.968 77.9247C450.093 82.6122 451.816 88.1165 452.135 94.4375H430.722C430.118 90.3537 428.52 87.0689 425.928 84.5831C423.371 82.0618 420.015 80.8011 415.86 80.8011C412.345 80.8011 409.273 81.7599 406.645 83.6776C404.053 85.5597 402.029 88.3118 400.573 91.9339C399.117 95.5561 398.389 99.9418 398.389 105.091C398.389 110.311 399.099 114.75 400.519 118.408C401.975 122.065 404.017 124.853 406.645 126.771C409.273 128.688 412.345 129.647 415.86 129.647C418.453 129.647 420.779 129.114 422.838 128.049C424.934 126.984 426.656 125.439 428.005 123.415C429.39 121.355 430.296 118.887 430.722 116.011H452.135C451.78 122.261 450.076 127.765 447.022 132.523C444.003 137.246 439.831 140.94 434.504 143.603C429.177 146.266 422.874 147.598 415.594 147.598ZM510.183 64.1818V81.2273H460.911V64.1818H510.183ZM472.097 44.5795H494.789V120.858C494.789 122.953 495.108 124.587 495.748 125.759C496.387 126.895 497.275 127.694 498.411 128.156C499.583 128.617 500.932 128.848 502.459 128.848C503.525 128.848 504.59 128.759 505.655 128.582C506.721 128.369 507.537 128.209 508.106 128.102L511.674 144.988C510.538 145.343 508.94 145.751 506.88 146.213C504.821 146.71 502.317 147.012 499.37 147.119C493.901 147.332 489.107 146.604 484.988 144.935C480.904 143.266 477.726 140.673 475.453 137.158C473.18 133.642 472.062 129.203 472.097 123.841V44.5795ZM596.649 147.598C588.375 147.598 581.219 145.84 575.182 142.325C569.181 138.773 564.546 133.837 561.279 127.516C558.012 121.16 556.379 113.791 556.379 105.411C556.379 96.9588 558.012 89.5724 561.279 83.2514C564.546 76.8949 569.181 71.9588 575.182 68.4432C581.219 64.892 588.375 63.1165 596.649 63.1165C604.923 63.1165 612.061 64.892 618.062 68.4432C624.099 71.9588 628.751 76.8949 632.018 83.2514C635.285 89.5724 636.919 96.9588 636.919 105.411C636.919 113.791 635.285 121.16 632.018 127.516C628.751 133.837 624.099 138.773 618.062 142.325C612.061 145.84 604.923 147.598 596.649 147.598ZM596.755 130.02C600.519 130.02 603.662 128.955 606.184 126.824C608.705 124.658 610.605 121.71 611.883 117.982C613.197 114.253 613.854 110.009 613.854 105.251C613.854 100.492 613.197 96.2486 611.883 92.5199C610.605 88.7912 608.705 85.8437 606.184 83.6776C603.662 81.5114 600.519 80.4283 596.755 80.4283C592.956 80.4283 589.759 81.5114 587.167 83.6776C584.61 85.8437 582.675 88.7912 581.361 92.5199C580.083 96.2486 579.443 100.492 579.443 105.251C579.443 110.009 580.083 114.253 581.361 117.982C582.675 121.71 584.61 124.658 587.167 126.824C589.759 128.955 592.956 130.02 596.755 130.02ZM674.365 98.6989V146H651.674V64.1818H673.3V78.6172H674.259C676.07 73.8587 679.106 70.0945 683.367 67.3246C687.629 64.5192 692.796 63.1165 698.868 63.1165C704.55 63.1165 709.504 64.3594 713.73 66.8452C717.956 69.331 721.24 72.8821 723.584 77.4986C725.928 82.0795 727.1 87.5483 727.1 93.9048V146H704.408V97.9531C704.443 92.946 703.165 89.0398 700.573 86.2344C697.98 83.3935 694.411 81.973 689.866 81.973C686.812 81.973 684.113 82.63 681.769 83.9439C679.461 85.2578 677.65 87.1754 676.336 89.6967C675.058 92.1825 674.401 95.1832 674.365 98.6989ZM780.127 146V36.9091H853.636V55.9254H803.192V81.9197H849.854V100.936H803.192V126.984H853.849V146H780.127ZM894.238 98.6989V146H871.547V64.1818H893.173V78.6172H894.132C895.943 73.8587 898.979 70.0945 903.241 67.3246C907.502 64.5192 912.669 63.1165 918.741 63.1165C924.423 63.1165 929.377 64.3594 933.603 66.8452C937.829 69.331 941.113 72.8821 943.457 77.4986C945.801 82.0795 946.973 87.5483 946.973 93.9048V146H924.281V97.9531C924.316 92.946 923.038 89.0398 920.446 86.2344C917.853 83.3935 914.285 81.973 909.739 81.973C906.685 81.973 903.986 82.63 901.642 83.9439C899.334 85.2578 897.523 87.1754 896.209 89.6967C894.931 92.1825 894.274 95.1832 894.238 98.6989ZM1008.38 64.1818V81.2273H959.104V64.1818H1008.38ZM970.29 44.5795H992.982V120.858C992.982 122.953 993.302 124.587 993.941 125.759C994.58 126.895 995.468 127.694 996.604 128.156C997.776 128.617 999.126 128.848 1000.65 128.848C1001.72 128.848 1002.78 128.759 1003.85 128.582C1004.91 128.369 1005.73 128.209 1006.3 128.102L1009.87 144.988C1008.73 145.343 1007.13 145.751 1005.07 146.213C1003.01 146.71 1000.51 147.012 997.563 147.119C992.094 147.332 987.3 146.604 983.181 144.935C979.097 143.266 975.919 140.673 973.646 137.158C971.373 133.642 970.255 129.203 970.29 123.841V44.5795ZM1023.16 146V64.1818H1045.16V78.4574H1046.01C1047.5 73.3793 1050 69.544 1053.52 66.9517C1057.04 64.3239 1061.08 63.0099 1065.67 63.0099C1066.8 63.0099 1068.03 63.081 1069.34 63.223C1070.65 63.3651 1071.81 63.5604 1072.8 63.8089V83.9439C1071.74 83.6243 1070.26 83.3402 1068.38 83.0916C1066.5 82.843 1064.78 82.7188 1063.21 82.7188C1059.88 82.7188 1056.89 83.4467 1054.27 84.9027C1051.67 86.3232 1049.61 88.3118 1048.09 90.8686C1046.6 93.4254 1045.85 96.3729 1045.85 99.7109V146H1023.16ZM1118.01 147.598C1109.6 147.598 1102.35 145.893 1096.28 142.484C1090.24 139.04 1085.59 134.175 1082.32 127.889C1079.06 121.568 1077.42 114.093 1077.42 105.464C1077.42 97.0476 1079.06 89.6612 1082.32 83.3047C1085.59 76.9482 1090.19 71.9943 1096.12 68.4432C1102.09 64.892 1109.08 63.1165 1117.11 63.1165C1122.51 63.1165 1127.53 63.9865 1132.18 65.7266C1136.87 67.4311 1140.95 70.0057 1144.43 73.4503C1147.95 76.8949 1150.68 81.2273 1152.64 86.4474C1154.59 91.6321 1155.57 97.7045 1155.57 104.665V110.897H1086.48V96.8345H1134.21C1134.21 93.5675 1133.5 90.6733 1132.08 88.152C1130.66 85.6307 1128.68 83.6598 1126.16 82.2393C1123.68 80.7834 1120.78 80.0554 1117.48 80.0554C1114.04 80.0554 1110.98 80.8544 1108.32 82.4524C1105.69 84.0149 1103.63 86.1278 1102.14 88.7912C1100.65 91.419 1099.88 94.3487 1099.85 97.5803V110.95C1099.85 114.999 1100.59 118.496 1102.09 121.444C1103.61 124.391 1105.76 126.664 1108.53 128.262C1111.3 129.86 1114.59 130.659 1118.39 130.659C1120.91 130.659 1123.22 130.304 1125.31 129.594C1127.41 128.884 1129.2 127.818 1130.69 126.398C1132.18 124.977 1133.32 123.237 1134.1 121.178L1155.09 122.562C1154.02 127.605 1151.84 132.009 1148.54 135.773C1145.27 139.501 1141.04 142.413 1135.86 144.509C1130.71 146.568 1124.76 147.598 1118.01 147.598ZM1170.37 176.682V64.1818H1192.75V77.9247H1193.76C1194.75 75.723 1196.19 73.4858 1198.07 71.2131C1199.99 68.9048 1202.48 66.9872 1205.53 65.4602C1208.62 63.8977 1212.46 63.1165 1217.04 63.1165C1223 63.1165 1228.51 64.679 1233.55 67.804C1238.59 70.8935 1242.62 75.5632 1245.64 81.8132C1248.66 88.0277 1250.17 95.8224 1250.17 105.197C1250.17 114.324 1248.7 122.03 1245.75 128.315C1242.84 134.565 1238.86 139.306 1233.82 142.538C1228.81 145.734 1223.2 147.332 1216.98 147.332C1212.58 147.332 1208.83 146.604 1205.74 145.148C1202.69 143.692 1200.19 141.863 1198.23 139.661C1196.28 137.424 1194.79 135.169 1193.76 132.896H1193.07V176.682H1170.37ZM1192.59 105.091C1192.59 109.956 1193.26 114.2 1194.61 117.822C1195.96 121.444 1197.91 124.267 1200.47 126.291C1203.03 128.28 1206.13 129.274 1209.79 129.274C1213.49 129.274 1216.61 128.262 1219.17 126.238C1221.72 124.178 1223.66 121.337 1224.97 117.715C1226.32 114.058 1227 109.849 1227 105.091C1227 100.368 1226.34 96.2131 1225.03 92.6264C1223.71 89.0398 1221.78 86.2344 1219.22 84.2102C1216.66 82.1861 1213.52 81.174 1209.79 81.174C1206.1 81.174 1202.97 82.1506 1200.42 84.1037C1197.9 86.0568 1195.96 88.8267 1194.61 92.4133C1193.26 96 1192.59 100.226 1192.59 105.091ZM1265.3 146V64.1818H1287.3V78.4574H1288.15C1289.64 73.3793 1292.14 69.544 1295.66 66.9517C1299.17 64.3239 1303.22 63.0099 1307.8 63.0099C1308.94 63.0099 1310.17 63.081 1311.48 63.223C1312.79 63.3651 1313.95 63.5604 1314.94 63.8089V83.9439C1313.88 83.6243 1312.4 83.3402 1310.52 83.0916C1308.64 82.843 1306.92 82.7188 1305.35 82.7188C1302.02 82.7188 1299.03 83.4467 1296.4 84.9027C1293.81 86.3232 1291.75 88.3118 1290.23 90.8686C1288.73 93.4254 1287.99 96.3729 1287.99 99.7109V146H1265.3ZM1360.15 147.598C1351.74 147.598 1344.49 145.893 1338.42 142.484C1332.38 139.04 1327.73 134.175 1324.46 127.889C1321.2 121.568 1319.56 114.093 1319.56 105.464C1319.56 97.0476 1321.2 89.6612 1324.46 83.3047C1327.73 76.9482 1332.33 71.9943 1338.26 68.4432C1344.23 64.892 1351.22 63.1165 1359.25 63.1165C1364.64 63.1165 1369.67 63.9865 1374.32 65.7266C1379.01 67.4311 1383.09 70.0057 1386.57 73.4503C1390.09 76.8949 1392.82 81.2273 1394.78 86.4474C1396.73 91.6321 1397.71 97.7045 1397.71 104.665V110.897H1328.62V96.8345H1376.35C1376.35 93.5675 1375.63 90.6733 1374.21 88.152C1372.79 85.6307 1370.82 83.6598 1368.3 82.2393C1365.82 80.7834 1362.92 80.0554 1359.62 80.0554C1356.17 80.0554 1353.12 80.8544 1350.46 82.4524C1347.83 84.0149 1345.77 86.1278 1344.28 88.7912C1342.79 91.419 1342.02 94.3487 1341.99 97.5803V110.95C1341.99 114.999 1342.73 118.496 1344.23 121.444C1345.75 124.391 1347.9 126.664 1350.67 128.262C1353.44 129.86 1356.73 130.659 1360.52 130.659C1363.05 130.659 1365.35 130.304 1367.45 129.594C1369.54 128.884 1371.34 127.818 1372.83 126.398C1374.32 124.977 1375.46 123.237 1376.24 121.178L1397.23 122.562C1396.16 127.605 1393.98 132.009 1390.67 135.773C1387.41 139.501 1383.18 142.413 1378 144.509C1372.85 146.568 1366.9 147.598 1360.15 147.598ZM1435.21 98.6989V146H1412.51V64.1818H1434.14V78.6172H1435.1C1436.91 73.8587 1439.95 70.0945 1444.21 67.3246C1448.47 64.5192 1453.64 63.1165 1459.71 63.1165C1465.39 63.1165 1470.34 64.3594 1474.57 66.8452C1478.8 69.331 1482.08 72.8821 1484.42 77.4986C1486.77 82.0795 1487.94 87.5483 1487.94 93.9048V146H1465.25V97.9531C1465.28 92.946 1464 89.0398 1461.41 86.2344C1458.82 83.3935 1455.25 81.973 1450.71 81.973C1447.65 81.973 1444.95 82.63 1442.61 83.9439C1440.3 85.2578 1438.49 87.1754 1437.18 89.6967C1435.9 92.1825 1435.24 95.1832 1435.21 98.6989ZM1543.11 147.598C1534.69 147.598 1527.45 145.893 1521.38 142.484C1515.34 139.04 1510.69 134.175 1507.42 127.889C1504.15 121.568 1502.52 114.093 1502.52 105.464C1502.52 97.0476 1504.15 89.6612 1507.42 83.3047C1510.69 76.9482 1515.29 71.9943 1521.22 68.4432C1527.18 64.892 1534.18 63.1165 1542.21 63.1165C1547.6 63.1165 1552.63 63.9865 1557.28 65.7266C1561.97 67.4311 1566.05 70.0057 1569.53 73.4503C1573.05 76.8949 1575.78 81.2273 1577.73 86.4474C1579.69 91.6321 1580.66 97.7045 1580.66 104.665V110.897H1511.58V96.8345H1559.3C1559.3 93.5675 1558.59 90.6733 1557.17 88.152C1555.75 85.6307 1553.78 83.6598 1551.26 82.2393C1548.77 80.7834 1545.88 80.0554 1542.58 80.0554C1539.13 80.0554 1536.08 80.8544 1533.42 82.4524C1530.79 84.0149 1528.73 86.1278 1527.24 88.7912C1525.75 91.419 1524.98 94.3487 1524.95 97.5803V110.95C1524.95 114.999 1525.69 118.496 1527.18 121.444C1528.71 124.391 1530.86 126.664 1533.63 128.262C1536.4 129.86 1539.68 130.659 1543.48 130.659C1546.01 130.659 1548.31 130.304 1550.41 129.594C1552.5 128.884 1554.3 127.818 1555.79 126.398C1557.28 124.977 1558.42 123.237 1559.2 121.178L1580.18 122.562C1579.12 127.605 1576.94 132.009 1573.63 135.773C1570.37 139.501 1566.14 142.413 1560.96 144.509C1555.81 146.568 1549.86 147.598 1543.11 147.598ZM1647.94 111.163V64.1818H1670.63V146H1648.85V131.138H1647.99C1646.15 135.933 1643.08 139.786 1638.78 142.697C1634.52 145.609 1629.31 147.065 1623.17 147.065C1617.7 147.065 1612.89 145.822 1608.74 143.337C1604.58 140.851 1601.33 137.317 1598.99 132.737C1596.68 128.156 1595.51 122.669 1595.47 116.277V64.1818H1618.16V112.229C1618.2 117.058 1619.5 120.876 1622.05 123.681C1624.61 126.487 1628.04 127.889 1632.33 127.889C1635.07 127.889 1637.62 127.268 1640 126.025C1642.38 124.746 1644.3 122.864 1645.76 120.379C1647.25 117.893 1647.98 114.821 1647.94 111.163ZM1688.78 146V64.1818H1710.78V78.4574H1711.63C1713.13 73.3793 1715.63 69.544 1719.15 66.9517C1722.66 64.3239 1726.71 63.0099 1731.29 63.0099C1732.43 63.0099 1733.65 63.081 1734.97 63.223C1736.28 63.3651 1737.43 63.5604 1738.43 63.8089V83.9439C1737.36 83.6243 1735.89 83.3402 1734.01 83.0916C1732.12 82.843 1730.4 82.7188 1728.84 82.7188C1725.5 82.7188 1722.52 83.4467 1719.89 84.9027C1717.3 86.3232 1715.24 88.3118 1713.71 90.8686C1712.22 93.4254 1711.47 96.3729 1711.47 99.7109V146H1688.78ZM1818.24 87.5128L1797.46 88.7912C1797.11 87.0156 1796.34 85.4176 1795.17 83.9972C1794 82.5412 1792.45 81.3871 1790.54 80.5348C1788.65 79.647 1786.4 79.2031 1783.77 79.2031C1780.26 79.2031 1777.29 79.9489 1774.88 81.4403C1772.46 82.8963 1771.25 84.8494 1771.25 87.2997C1771.25 89.2528 1772.03 90.9041 1773.6 92.2536C1775.16 93.603 1777.84 94.6861 1781.64 95.5028L1796.45 98.4858C1804.4 100.119 1810.33 102.747 1814.24 106.369C1818.15 109.991 1820.1 114.75 1820.1 120.645C1820.1 126.007 1818.52 130.712 1815.36 134.761C1812.23 138.809 1807.94 141.969 1802.47 144.242C1797.03 146.479 1790.77 147.598 1783.66 147.598C1772.83 147.598 1764.2 145.343 1757.78 140.833C1751.39 136.288 1747.64 130.109 1746.54 122.296L1768.86 121.124C1769.53 124.427 1771.16 126.948 1773.76 128.688C1776.35 130.393 1779.67 131.245 1783.72 131.245C1787.7 131.245 1790.89 130.482 1793.31 128.955C1795.76 127.392 1797 125.386 1797.03 122.935C1797 120.876 1796.13 119.189 1794.42 117.875C1792.72 116.526 1790.09 115.496 1786.54 114.786L1772.37 111.962C1764.38 110.364 1758.43 107.594 1754.53 103.653C1750.66 99.7109 1748.72 94.6861 1748.72 88.5781C1748.72 83.3224 1750.14 78.7947 1752.98 74.995C1755.86 71.1953 1759.89 68.2656 1765.07 66.206C1770.29 64.1463 1776.4 63.1165 1783.4 63.1165C1793.73 63.1165 1801.86 65.3004 1807.79 69.6683C1813.76 74.0362 1817.24 79.9844 1818.24 87.5128ZM1857.08 98.6989V146H1834.39V36.9091H1856.44V78.6172H1857.4C1859.25 73.7876 1862.23 70.0057 1866.35 67.2713C1870.47 64.5014 1875.63 63.1165 1881.85 63.1165C1887.53 63.1165 1892.48 64.3594 1896.71 66.8452C1900.97 69.2955 1904.27 72.8288 1906.62 77.4453C1909 82.0263 1910.17 87.5128 1910.13 93.9048V146H1887.44V97.9531C1887.48 92.9105 1886.2 88.9865 1883.61 86.1811C1881.05 83.3757 1877.46 81.973 1872.85 81.973C1869.76 81.973 1867.02 82.63 1864.64 83.9439C1862.3 85.2578 1860.45 87.1754 1859.1 89.6967C1857.79 92.1825 1857.12 95.1832 1857.08 98.6989ZM1927.99 146V64.1818H1950.68V146H1927.99ZM1939.39 53.6349C1936.02 53.6349 1933.12 52.5163 1930.71 50.2791C1928.33 48.0064 1927.14 45.2898 1927.14 42.1293C1927.14 39.0043 1928.33 36.3232 1930.71 34.0859C1933.12 31.8132 1936.02 30.6768 1939.39 30.6768C1942.76 30.6768 1945.64 31.8132 1948.02 34.0859C1950.44 36.3232 1951.64 39.0043 1951.64 42.1293C1951.64 45.2898 1950.44 48.0064 1948.02 50.2791C1945.64 52.5163 1942.76 53.6349 1939.39 53.6349ZM1968.86 176.682V64.1818H1991.23V77.9247H1992.25C1993.24 75.723 1994.68 73.4858 1996.56 71.2131C1998.48 68.9048 2000.96 66.9872 2004.02 65.4602C2007.11 63.8977 2010.94 63.1165 2015.52 63.1165C2021.49 63.1165 2026.99 64.679 2032.04 67.804C2037.08 70.8935 2041.11 75.5632 2044.13 81.8132C2047.15 88.0277 2048.66 95.8224 2048.66 105.197C2048.66 114.324 2047.18 122.03 2044.23 128.315C2041.32 134.565 2037.34 139.306 2032.3 142.538C2027.3 145.734 2021.68 147.332 2015.47 147.332C2011.07 147.332 2007.32 146.604 2004.23 145.148C2001.18 143.692 1998.67 141.863 1996.72 139.661C1994.77 137.424 1993.28 135.169 1992.25 132.896H1991.55V176.682H1968.86ZM1991.07 105.091C1991.07 109.956 1991.75 114.2 1993.1 117.822C1994.45 121.444 1996.4 124.267 1998.96 126.291C2001.51 128.28 2004.62 129.274 2008.28 129.274C2011.97 129.274 2015.1 128.262 2017.65 126.238C2020.21 124.178 2022.15 121.337 2023.46 117.715C2024.81 114.058 2025.48 109.849 2025.48 105.091C2025.48 100.368 2024.83 96.2131 2023.51 92.6264C2022.2 89.0398 2020.26 86.2344 2017.71 84.2102C2015.15 82.1861 2012.01 81.174 2008.28 81.174C2004.59 81.174 2001.46 82.1506 1998.9 84.1037C1996.38 86.0568 1994.45 88.8267 1993.1 92.4133C1991.75 96 1991.07 100.226 1991.07 105.091ZM2082.8 36.9091V48.4148C2082.8 51.6818 2082.16 55.0199 2080.88 58.429C2079.64 61.8026 2077.97 64.9986 2075.87 68.017C2073.78 71 2071.49 73.5391 2069 75.6342L2058.99 69.7216C2060.76 66.9162 2062.33 63.8089 2063.68 60.3999C2065.06 56.9908 2065.75 53.0312 2065.75 48.5213V36.9091H2082.8ZM2109.59 36.9091V48.4148C2109.59 51.6818 2108.95 55.0199 2107.67 58.429C2106.43 61.8026 2104.76 64.9986 2102.67 68.017C2100.57 71 2098.26 73.5391 2095.74 75.6342L2085.73 69.7216C2087.54 66.9162 2089.12 63.8089 2090.47 60.3999C2091.85 56.9908 2092.55 53.0312 2092.55 48.5213V36.9091H2109.59Z" fill="black"/>
<path d="M1044.65 408.051C1044.65 402.253 1044.58 396.455 1044.66 390.659C1045.38 341.317 1046.13 291.975 1046.88 242.633C1046.96 237.251 1046.83 231.848 1047.26 226.492C1047.85 219.119 1049.23 210.487 1058.69 212.226C1062.46 212.921 1067.23 221.03 1067.51 225.994C1069.83 267.185 1071.28 308.428 1072.82 349.663C1073.17 359.05 1072.87 368.462 1077.92 378.846C1084.33 367.556 1089.91 355.66 1097.5 345.24C1101.1 340.303 1109.44 334.441 1114.05 335.557C1124.29 338.035 1122.8 348.702 1119.68 355.806C1104.96 389.394 1090.81 423.392 1073.43 455.6C1062.3 476.23 1045.62 476.06 1034.58 455.529C1019.8 428.059 1008.4 398.726 996.346 369.855C994.891 366.369 998.42 360.785 999.638 356.173C1004.25 357.723 1010.6 357.898 1013.12 361.106C1018.57 368.041 1022.1 376.511 1026.34 384.391C1030.79 392.645 1035.15 400.943 1039.55 409.222C1041.25 408.831 1042.95 408.441 1044.65 408.051Z" fill="black"/>
</svg>
